<svg xmlns="http://www.w3.org/2000/svg" viewBox="0 0 42 42">
  <!-- Red circle background -->
  <circle cx="21" cy="21" r="21" fill="#E21D38"/>
  <!-- F5 logomark in white -->
  <path fill="white" d="
    M20.5178 23.0717C30.8288 23.9231 34.8017 26.761 34.6126 30.6394
    C34.4234 32.7205 32.4369 34.707 29.8828 34.8962
    C26.8558 35.0854 25.4368 33.8556 24.5855 32.5313
    C23.8287 31.3016 22.9773 30.0718 22.1259 28.7475
    C21.9368 28.3691 21.5584 28.6529 21.2746 28.8421
    C20.6124 29.4097 20.0449 30.0718 19.4773 30.6394
    C19.0989 31.0178 19.1935 31.3016 19.2881 31.5853
    C19.8557 32.9097 20.4233 34.234 20.9908 35.4638
    C21.9368 36.0314 26.1936 36.7881 29.3152 36.5043
    C31.4909 36.3151 34.1396 35.4638 36.4099 33.8556
    C38.5856 32.153 40.1937 29.8826 40.4775 26.1934
    C40.5721 23.9231 40.1937 21.5582 38.2072 19.3825
    C36.2207 17.2068 32.8152 15.4095 25.9098 14.9365
    C26.2881 13.8014 26.572 12.7608 26.9504 11.7203
    C31.1126 11.9095 34.8017 12.1932 37.9234 12.5716
    C38.2072 11.3419 38.3018 10.2068 38.5856 9.07164
    L37.7343 8.03103
    C36.1261 7.84187 34.6126 7.46347 32.9098 7.27431
    C30.7342 6.99049 28.4639 6.80133 26.0044 6.70668
    C24.3962 11.2473 22.5043 17.0176 20.5178 23.0717Z
    M17.7746 5.3824
    C17.0178 5.3824 15.9772 5.57156 14.2746 5.94996
    C10.5853 6.99049 6.0447 9.54462 5.57172 13.8014
    C5.47714 14.4636 5.47714 15.2203 5.38256 15.8825
    C4.34203 15.9771 3.39607 16.0716 2.45012 16.1663
    C2.35546 17.0176 2.35546 17.7744 2.26088 18.6258
    C3.20683 18.5312 4.15279 18.5312 5.19332 18.4365
    C5.00416 22.8826 5.19332 27.3285 5.57172 31.4907
    C5.6663 32.153 5.6663 32.7205 5.6663 33.0989
    C5.57172 33.4772 4.90958 33.6665 3.96363 33.6665
    L5.19332 35.18
    C8.78798 35.8421 13.3286 36.3151 18.153 36.4098
    V34.9908
    C15.3151 34.8016 13.9907 34.4232 13.8016 33.8556
    C13.6123 33.3826 13.6123 32.7205 13.5178 32.0583
    C13.3286 27.7069 13.234 22.9771 13.3286 18.1528
    C14.9367 18.1528 16.5449 18.1528 18.153 18.0582
    C19.0043 17.6798 19.761 17.3014 20.5178 16.923
    V15.3149
    C18.0584 15.3149 15.6935 15.4095 13.3286 15.4095
    C13.4232 13.423 13.5178 11.5311 13.6123 9.73378
    C13.707 8.50401 14.5583 7.65271 15.3151 7.65271
    C16.6394 7.55805 17.8691 8.12569 19.0989 8.69324
    C19.761 8.97698 20.4233 9.35538 21.0854 9.6392
    C21.3692 9.73378 21.7476 9.82836 22.0313 9.54462
    C22.4097 9.07164 22.7881 8.59866 23.1665 8.22027
    C23.3557 7.93645 23.2611 7.74729 23.1665 7.65271
    C22.3152 6.99049 21.5584 6.42294 20.707 5.76072
    C20.234 5.3824 19.3827 5.3824 18.6259 5.3824
    C18.3421 5.28774 18.0584 5.3824 17.7746 5.3824Z
  "/>
</svg>
